# Blender 4.0.1
# www.blender.org
mtllib corpTank.mtl
o Cube
v -1.716453 -0.486604 1.457371
v -1.716453 -0.486604 -1.402542
v 2.261022 -0.486604 1.457371
v 2.261022 -0.486604 -1.402542
v -1.423800 1.513396 1.246946
v -1.716453 1.366241 1.457371
v -1.423800 1.513396 -1.192116
v -1.716453 1.366241 -1.402542
v 1.968369 1.513396 1.246946
v 2.261022 1.366241 1.457371
v 1.968369 1.513396 -1.192116
v 2.261022 1.366241 -1.402542
vn -0.0000 1.0000 -0.0000
vn 1.0000 -0.0000 -0.0000
vn -1.0000 -0.0000 -0.0000
vn -0.0000 -1.0000 -0.0000
vn -0.0000 -0.0000 -1.0000
vn -0.4492 0.8934 -0.0000
vn -0.0000 0.8195 -0.5731
vn 0.4492 0.8934 -0.0000
vn -0.0000 0.8195 0.5731
vn -0.0000 -0.0000 1.0000
vt 0.643394 0.518394
vt 0.856606 0.518394
vt 0.856606 0.731606
vt 0.643394 0.731606
vt 0.375000 0.500000
vt 0.606606 0.500000
vt 0.606606 0.750000
vt 0.375000 0.750000
vt 0.375000 0.000000
vt 0.606606 0.000000
vt 0.606606 0.250000
vt 0.375000 0.250000
vt 0.125000 0.500000
vt 0.125000 0.750000
vt 0.875000 0.500000
vt 0.875000 0.750000
vt 0.625000 0.500000
vt 0.625000 0.750000
vt 0.606606 1.000000
vt 0.375000 1.000000
s 0
f 11/1/1 7/2/1 5/3/1 9/4/1
f 4/5/2 12/6/2 10/7/2 3/8/2
f 1/9/3 6/10/3 8/11/3 2/12/3
f 2/13/4 4/5/4 3/8/4 1/14/4
f 2/12/5 8/11/5 12/6/5 4/5/5
f 5/3/6 7/2/6 8/15/6 6/16/6
f 7/2/7 11/1/7 12/17/7 8/15/7
f 11/1/8 9/4/8 10/7/8 12/6/8
f 9/4/9 5/3/9 6/16/9 10/18/9
f 3/8/10 10/7/10 6/19/10 1/20/10
