# Blender 4.0.1
# www.blender.org
mtllib senile.mtl
o Cube.002
v -0.781638 0.686972 -0.844593
v -0.781638 -1.313028 -0.844593
v -0.781638 0.686972 -2.844593
v -0.781638 -1.313028 -2.844593
v 2.543693 0.686972 -0.844593
v 4.379196 -0.371220 -0.844593
v 2.862424 0.670896 -0.844593
v 3.171471 0.623156 -0.844593
v 3.461444 0.545202 -0.844593
v 3.723531 0.439403 -0.844593
v 3.949769 0.308973 -0.844593
v 4.133285 0.157876 -0.844593
v 4.268501 -0.009297 -0.844593
v 4.351310 -0.187467 -0.844593
v 4.379196 -0.371220 -2.844593
v 2.543693 0.686972 -2.844593
v 4.351310 -0.187467 -2.844593
v 4.268501 -0.009297 -2.844593
v 4.133285 0.157876 -2.844593
v 3.949769 0.308973 -2.844593
v 3.723531 0.439403 -2.844593
v 3.461444 0.545202 -2.844593
v 3.171471 0.623156 -2.844593
v 2.862424 0.670896 -2.844593
v 4.379196 -0.503880 -0.844593
v 2.975677 -1.313028 -0.844593
v 4.352228 -0.661737 -0.844593
v 4.272360 -0.813527 -0.844593
v 4.142661 -0.953418 -0.844593
v 3.968115 -1.076034 -0.844593
v 3.755430 -1.176661 -0.844593
v 3.512781 -1.251435 -0.844593
v 3.249490 -1.297480 -0.844593
v 2.975677 -1.313028 -2.844593
v 4.379196 -0.503880 -2.844593
v 3.249490 -1.297480 -2.844593
v 3.512781 -1.251435 -2.844593
v 3.755430 -1.176661 -2.844593
v 3.968115 -1.076034 -2.844593
v 4.142661 -0.953418 -2.844593
v 4.272360 -0.813527 -2.844593
v 4.352228 -0.661737 -2.844593
v -4.250767 -0.351239 -0.844593
v -2.449923 0.686972 -0.844593
v -4.216164 -0.148694 -0.844593
v -4.113686 0.046068 -0.844593
v -3.947270 0.225561 -0.844593
v -3.723312 0.382887 -0.844593
v -3.450418 0.512002 -0.844593
v -3.139076 0.607943 -0.844593
v -2.801250 0.667024 -0.844593
v -2.449923 0.686972 -2.844593
v -4.250767 -0.351239 -2.844593
v -2.801250 0.667024 -2.844593
v -3.139076 0.607943 -2.844593
v -3.450418 0.512002 -2.844593
v -3.723312 0.382887 -2.844593
v -3.947270 0.225561 -2.844593
v -4.113686 0.046068 -2.844593
v -4.216164 -0.148694 -2.844593
v -2.847395 -1.313028 -0.844593
v -4.250767 -0.503964 -0.844593
v -3.159674 -1.292742 -0.844593
v -3.456295 -1.232905 -0.844593
v -3.722383 -1.136515 -0.844593
v -3.944595 -1.008407 -0.844593
v -4.111789 -0.855004 -0.844593
v -4.215581 -0.683998 -0.844593
v -4.250767 -0.503964 -2.844593
v -2.847395 -1.313028 -2.844593
v -4.215581 -0.683998 -2.844593
v -4.111789 -0.855004 -2.844593
v -3.944595 -1.008407 -2.844593
v -3.722383 -1.136515 -2.844593
v -3.456295 -1.232905 -2.844593
v -3.159674 -1.292743 -2.844593
vn -0.0000 1.0000 -0.0000
vn -0.0000 -0.0000 1.0000
vn -0.0000 -1.0000 -0.0000
vn -0.0000 -0.0000 -1.0000
vn 0.0504 0.9987 -0.0000
vn 0.1527 0.9883 -0.0000
vn 0.2596 0.9657 -0.0000
vn 0.3743 0.9273 -0.0000
vn 0.4995 0.8663 -0.0000
vn 0.6356 0.7720 -0.0000
vn 0.7775 0.6289 -0.0000
vn 0.9068 0.4215 -0.0000
vn 0.9887 0.1500 -0.0000
vn 1.0000 -0.0000 -0.0000
vn 0.0567 -0.9984 -0.0000
vn 0.1723 -0.9851 -0.0000
vn 0.2945 -0.9557 -0.0000
vn 0.4277 -0.9039 -0.0000
vn 0.5748 -0.8183 -0.0000
vn 0.7333 -0.6799 -0.0000
vn 0.8850 -0.4656 -0.0000
vn 0.9857 -0.1684 -0.0000
vn -0.0567 0.9984 -0.0000
vn -0.1723 0.9850 -0.0000
vn -0.2945 0.9557 -0.0000
vn -0.4277 0.9039 -0.0000
vn -0.5748 0.8183 -0.0000
vn -0.7333 0.6799 -0.0000
vn -0.8850 0.4656 -0.0000
vn -0.9857 0.1684 -0.0000
vn -0.0648 -0.9979 -0.0000
vn -0.1977 -0.9803 -0.0000
vn -0.3406 -0.9402 -0.0000
vn -0.4995 -0.8663 -0.0000
vn -0.6761 -0.7368 -0.0000
vn -0.8549 -0.5189 -0.0000
vn -0.9814 -0.1918 -0.0000
vn -1.0000 -0.0000 -0.0000
vt 0.625000 0.500000
vt 0.745224 0.500000
vt 0.745224 0.750000
vt 0.625000 0.750000
vt 0.375000 0.351133
vt 0.377536 0.328629
vt 0.385015 0.307253
vt 0.397064 0.288078
vt 0.413078 0.272064
vt 0.432253 0.260015
vt 0.453629 0.252536
vt 0.476133 0.250000
vt 0.495224 0.250000
vt 0.520542 0.252494
vt 0.544887 0.259879
vt 0.567324 0.271871
vt 0.586989 0.288011
vt 0.603129 0.307676
vt 0.615121 0.330113
vt 0.622506 0.354458
vt 0.625000 0.379776
vt 0.375000 0.500000
vt 0.226133 0.500000
vt 0.375000 0.750000
vt 0.226133 0.750000
vt 0.375653 0.750000
vt 0.377585 0.750000
vt 0.380718 0.750000
vt 0.384921 0.750000
vt 0.419990 0.750000
vt 0.437460 0.750000
vt 0.456418 0.750000
vt 0.476143 0.750000
vt 0.492726 0.750000
vt 0.515695 0.750000
vt 0.537966 0.750000
vt 0.558863 0.750000
vt 0.577750 0.750000
vt 0.614685 0.750000
vt 0.619093 0.750000
vt 0.622341 0.750000
vt 0.624330 0.750000
vt 0.624330 0.500000
vt 0.622341 0.500000
vt 0.619093 0.500000
vt 0.614685 0.500000
vt 0.577750 0.500000
vt 0.558863 0.500000
vt 0.537966 0.500000
vt 0.515695 0.500000
vt 0.492726 0.500000
vt 0.476143 0.500000
vt 0.456418 0.500000
vt 0.437460 0.500000
vt 0.419990 0.500000
vt 0.384921 0.500000
vt 0.380718 0.500000
vt 0.377585 0.500000
vt 0.375653 0.500000
vt 0.476143 0.750000
vt 0.770542 0.500000
vt 0.770542 0.750000
vt 0.794887 0.500000
vt 0.794887 0.750000
vt 0.817324 0.500000
vt 0.817324 0.750000
vt 0.875000 0.500000
vt 0.875000 0.750000
vt 0.625000 0.000000
vt 0.625000 0.250000
vt 0.567324 0.250000
vt 0.567324 0.000000
vt 0.544887 0.250000
vt 0.544887 0.000000
vt 0.520542 0.250000
vt 0.520542 0.000000
vt 0.495224 0.000000
vt 0.625000 0.870224
vt 0.622506 0.895542
vt 0.615121 0.919887
vt 0.603129 0.942324
vt 0.586989 0.961989
vt 0.567324 0.978129
vt 0.544887 0.990121
vt 0.520542 0.997506
vt 0.495224 1.000000
vt 0.476133 1.000000
vt 0.453629 0.997464
vt 0.432253 0.989985
vt 0.413078 0.977936
vt 0.397064 0.961922
vt 0.385015 0.942747
vt 0.377536 0.921371
vt 0.375000 0.898867
vt 0.203629 0.750000
vt 0.203629 0.500000
vt 0.182253 0.750000
vt 0.182253 0.500000
vt 0.163078 0.750000
vt 0.163078 0.500000
vt 0.125000 0.750000
vt 0.125000 0.500000
vt 0.375000 0.250000
vt 0.375000 0.000000
vt 0.432253 0.000000
vt 0.432253 0.250000
vt 0.453629 0.000000
vt 0.453629 0.250000
vt 0.476133 0.000000
s 0
usemtl Material.003
f 1/1/1 3/4/1 52/3/1 44/2/1
f 61/5/2 2/22/2 1/1/2 44/21/2 51/20/2 50/19/2 49/18/2 48/17/2 47/16/2 46/15/2 45/14/2 43/13/2 62/12/2 68/11/2 67/10/2 66/9/2 65/8/2 64/7/2 63/6/2
f 61/23/3 70/25/3 4/24/3 2/22/3
f 1/1/1 5/1/1 16/4/1 3/4/1
f 3/4/4 16/4/4 24/42/4 23/41/4 22/40/4 21/39/4 20/38/4 19/37/4 18/36/4 17/35/4 15/34/4 35/33/4 42/32/4 41/31/4 40/30/4 39/29/4 38/28/4 37/27/4 36/26/4 34/24/4 4/24/4
f 2/22/2 26/22/2 33/59/2 32/58/2 31/57/2 30/56/2 29/55/2 28/54/2 27/53/2 25/52/2 6/51/2 14/50/2 13/49/2 12/48/2 11/47/2 10/46/2 9/45/2 8/44/2 7/43/2 5/1/2 1/1/2
f 5/1/5 7/43/5 24/42/5 16/4/5
f 7/43/6 8/44/6 23/41/6 24/42/6
f 8/44/7 9/45/7 22/40/7 23/41/7
f 9/45/8 10/46/8 21/39/8 22/40/8
f 10/46/9 11/47/9 20/38/9 21/39/9
f 11/47/10 12/48/10 19/37/10 20/38/10
f 12/48/11 13/49/11 18/36/11 19/37/11
f 13/49/12 14/50/12 17/35/12 18/36/12
f 14/50/13 6/51/13 15/34/13 17/35/13
f 25/52/14 35/60/14 15/34/14 6/51/14
f 34/24/15 36/26/15 33/59/15 26/22/15
f 36/26/16 37/27/16 32/58/16 33/59/16
f 37/27/17 38/28/17 31/57/17 32/58/17
f 38/28/18 39/29/18 30/56/18 31/57/18
f 39/29/19 40/30/19 29/55/19 30/56/19
f 40/30/20 41/31/20 28/54/20 29/55/20
f 41/31/21 42/32/21 27/53/21 28/54/21
f 42/32/22 35/60/22 25/52/22 27/53/22
f 4/24/3 34/24/3 26/22/3 2/22/3
f 52/3/23 54/62/23 51/61/23 44/2/23
f 54/62/24 55/64/24 50/63/24 51/61/24
f 55/64/25 56/66/25 49/65/25 50/63/25
f 56/66/26 57/68/26 48/67/26 49/65/26
f 57/69/27 58/72/27 47/71/27 48/70/27
f 58/72/28 59/74/28 46/73/28 47/71/28
f 59/74/29 60/76/29 45/75/29 46/73/29
f 60/76/30 53/77/30 43/13/30 45/75/30
f 4/24/4 70/94/4 76/93/4 75/92/4 74/91/4 73/90/4 72/89/4 71/88/4 69/87/4 53/86/4 60/85/4 59/84/4 58/83/4 57/82/4 56/81/4 55/80/4 54/79/4 52/78/4 3/4/4
f 61/23/31 63/96/31 76/95/31 70/25/31
f 63/96/32 64/98/32 75/97/32 76/95/32
f 64/98/33 65/100/33 74/99/33 75/97/33
f 65/100/34 66/102/34 73/101/34 74/99/34
f 66/103/35 67/106/35 72/105/35 73/104/35
f 67/106/36 68/108/36 71/107/36 72/105/36
f 68/108/37 62/12/37 69/109/37 71/107/37
f 69/109/38 62/12/38 43/13/38 53/77/38
o Cube.001
v -0.781638 0.686972 2.815464
v -0.781638 -1.313028 2.815464
v -0.781638 0.686972 0.815464
v -0.781638 -1.313028 0.815464
v 2.543693 0.686972 2.815464
v 4.379196 -0.371220 2.815464
v 2.862424 0.670896 2.815464
v 3.171471 0.623156 2.815464
v 3.461444 0.545202 2.815464
v 3.723531 0.439403 2.815464
v 3.949769 0.308973 2.815464
v 4.133285 0.157876 2.815464
v 4.268501 -0.009297 2.815464
v 4.351310 -0.187467 2.815464
v 4.379196 -0.371220 0.815464
v 2.543693 0.686972 0.815464
v 4.351310 -0.187467 0.815464
v 4.268501 -0.009297 0.815464
v 4.133285 0.157876 0.815464
v 3.949769 0.308973 0.815464
v 3.723531 0.439403 0.815464
v 3.461444 0.545202 0.815464
v 3.171471 0.623156 0.815464
v 2.862424 0.670896 0.815464
v 4.379196 -0.503880 2.815464
v 2.975677 -1.313028 2.815464
v 4.352228 -0.661737 2.815464
v 4.272360 -0.813527 2.815464
v 4.142661 -0.953418 2.815464
v 3.968115 -1.076034 2.815464
v 3.755430 -1.176661 2.815464
v 3.512781 -1.251435 2.815464
v 3.249490 -1.297480 2.815464
v 2.975677 -1.313028 0.815464
v 4.379196 -0.503880 0.815464
v 3.249490 -1.297480 0.815464
v 3.512781 -1.251435 0.815464
v 3.755430 -1.176661 0.815464
v 3.968115 -1.076034 0.815464
v 4.142661 -0.953418 0.815464
v 4.272360 -0.813527 0.815464
v 4.352228 -0.661737 0.815464
v -4.250767 -0.351239 2.815464
v -2.449923 0.686972 2.815464
v -4.216164 -0.148694 2.815464
v -4.113686 0.046068 2.815464
v -3.947270 0.225561 2.815464
v -3.723312 0.382887 2.815464
v -3.450418 0.512002 2.815464
v -3.139076 0.607943 2.815464
v -2.801250 0.667024 2.815464
v -2.449923 0.686972 0.815464
v -4.250767 -0.351239 0.815464
v -2.801250 0.667024 0.815464
v -3.139076 0.607943 0.815464
v -3.450418 0.512002 0.815464
v -3.723312 0.382887 0.815464
v -3.947270 0.225561 0.815464
v -4.113686 0.046068 0.815464
v -4.216164 -0.148694 0.815464
v -2.847395 -1.313028 2.815464
v -4.250767 -0.503964 2.815464
v -3.159674 -1.292742 2.815464
v -3.456295 -1.232905 2.815464
v -3.722383 -1.136515 2.815464
v -3.944595 -1.008407 2.815464
v -4.111789 -0.855004 2.815464
v -4.215581 -0.683998 2.815464
v -4.250767 -0.503964 0.815464
v -2.847395 -1.313028 0.815464
v -4.215581 -0.683998 0.815464
v -4.111789 -0.855004 0.815464
v -3.944595 -1.008407 0.815464
v -3.722383 -1.136515 0.815464
v -3.456295 -1.232905 0.815464
v -3.159674 -1.292743 0.815464
vn -0.0000 1.0000 -0.0000
vn -0.0000 -0.0000 1.0000
vn -0.0000 -1.0000 -0.0000
vn -0.0000 -0.0000 -1.0000
vn 0.0504 0.9987 -0.0000
vn 0.1527 0.9883 -0.0000
vn 0.2596 0.9657 -0.0000
vn 0.3743 0.9273 -0.0000
vn 0.4995 0.8663 -0.0000
vn 0.6356 0.7720 -0.0000
vn 0.7775 0.6289 -0.0000
vn 0.9068 0.4215 -0.0000
vn 0.9887 0.1500 -0.0000
vn 1.0000 -0.0000 -0.0000
vn 0.0567 -0.9984 -0.0000
vn 0.1723 -0.9851 -0.0000
vn 0.2945 -0.9557 -0.0000
vn 0.4277 -0.9039 -0.0000
vn 0.5748 -0.8183 -0.0000
vn 0.7333 -0.6799 -0.0000
vn 0.8850 -0.4656 -0.0000
vn 0.9857 -0.1684 -0.0000
vn -0.0567 0.9984 -0.0000
vn -0.1723 0.9850 -0.0000
vn -0.2945 0.9557 -0.0000
vn -0.4277 0.9039 -0.0000
vn -0.5748 0.8183 -0.0000
vn -0.7333 0.6799 -0.0000
vn -0.8850 0.4656 -0.0000
vn -0.9857 0.1684 -0.0000
vn -0.0648 -0.9979 -0.0000
vn -0.1977 -0.9803 -0.0000
vn -0.3406 -0.9402 -0.0000
vn -0.4995 -0.8663 -0.0000
vn -0.6761 -0.7368 -0.0000
vn -0.8549 -0.5189 -0.0000
vn -0.9814 -0.1918 -0.0000
vn -1.0000 -0.0000 -0.0000
vt 0.625000 0.500000
vt 0.745224 0.500000
vt 0.745224 0.750000
vt 0.625000 0.750000
vt 0.375000 0.351133
vt 0.377536 0.328629
vt 0.385015 0.307253
vt 0.397064 0.288078
vt 0.413078 0.272064
vt 0.432253 0.260015
vt 0.453629 0.252536
vt 0.476133 0.250000
vt 0.495224 0.250000
vt 0.520542 0.252494
vt 0.544887 0.259879
vt 0.567324 0.271871
vt 0.586989 0.288011
vt 0.603129 0.307676
vt 0.615121 0.330113
vt 0.622506 0.354458
vt 0.625000 0.379776
vt 0.375000 0.500000
vt 0.226133 0.500000
vt 0.375000 0.750000
vt 0.226133 0.750000
vt 0.375653 0.750000
vt 0.377585 0.750000
vt 0.380718 0.750000
vt 0.384921 0.750000
vt 0.419990 0.750000
vt 0.437460 0.750000
vt 0.456418 0.750000
vt 0.476143 0.750000
vt 0.492726 0.750000
vt 0.515695 0.750000
vt 0.537966 0.750000
vt 0.558863 0.750000
vt 0.577750 0.750000
vt 0.614685 0.750000
vt 0.619093 0.750000
vt 0.622341 0.750000
vt 0.624330 0.750000
vt 0.624330 0.500000
vt 0.622341 0.500000
vt 0.619093 0.500000
vt 0.614685 0.500000
vt 0.577750 0.500000
vt 0.558863 0.500000
vt 0.537966 0.500000
vt 0.515695 0.500000
vt 0.492726 0.500000
vt 0.476143 0.500000
vt 0.456418 0.500000
vt 0.437460 0.500000
vt 0.419990 0.500000
vt 0.384921 0.500000
vt 0.380718 0.500000
vt 0.377585 0.500000
vt 0.375653 0.500000
vt 0.476143 0.750000
vt 0.770542 0.500000
vt 0.770542 0.750000
vt 0.794887 0.500000
vt 0.794887 0.750000
vt 0.817324 0.500000
vt 0.817324 0.750000
vt 0.875000 0.500000
vt 0.875000 0.750000
vt 0.625000 0.000000
vt 0.625000 0.250000
vt 0.567324 0.250000
vt 0.567324 0.000000
vt 0.544887 0.250000
vt 0.544887 0.000000
vt 0.520542 0.250000
vt 0.520542 0.000000
vt 0.495224 0.000000
vt 0.625000 0.870224
vt 0.622506 0.895542
vt 0.615121 0.919887
vt 0.603129 0.942324
vt 0.586989 0.961989
vt 0.567324 0.978129
vt 0.544887 0.990121
vt 0.520542 0.997506
vt 0.495224 1.000000
vt 0.476133 1.000000
vt 0.453629 0.997464
vt 0.432253 0.989985
vt 0.413078 0.977936
vt 0.397064 0.961922
vt 0.385015 0.942747
vt 0.377536 0.921371
vt 0.375000 0.898867
vt 0.203629 0.750000
vt 0.203629 0.500000
vt 0.182253 0.750000
vt 0.182253 0.500000
vt 0.163078 0.750000
vt 0.163078 0.500000
vt 0.125000 0.750000
vt 0.125000 0.500000
vt 0.375000 0.250000
vt 0.375000 0.000000
vt 0.432253 0.000000
vt 0.432253 0.250000
vt 0.453629 0.000000
vt 0.453629 0.250000
vt 0.476133 0.000000
s 0
usemtl Material.004
f 77/110/39 79/113/39 128/112/39 120/111/39
f 137/114/40 78/131/40 77/110/40 120/130/40 127/129/40 126/128/40 125/127/40 124/126/40 123/125/40 122/124/40 121/123/40 119/122/40 138/121/40 144/120/40 143/119/40 142/118/40 141/117/40 140/116/40 139/115/40
f 137/132/41 146/134/41 80/133/41 78/131/41
f 77/110/39 81/110/39 92/113/39 79/113/39
f 79/113/42 92/113/42 100/151/42 99/150/42 98/149/42 97/148/42 96/147/42 95/146/42 94/145/42 93/144/42 91/143/42 111/142/42 118/141/42 117/140/42 116/139/42 115/138/42 114/137/42 113/136/42 112/135/42 110/133/42 80/133/42
f 78/131/40 102/131/40 109/168/40 108/167/40 107/166/40 106/165/40 105/164/40 104/163/40 103/162/40 101/161/40 82/160/40 90/159/40 89/158/40 88/157/40 87/156/40 86/155/40 85/154/40 84/153/40 83/152/40 81/110/40 77/110/40
f 81/110/43 83/152/43 100/151/43 92/113/43
f 83/152/44 84/153/44 99/150/44 100/151/44
f 84/153/45 85/154/45 98/149/45 99/150/45
f 85/154/46 86/155/46 97/148/46 98/149/46
f 86/155/47 87/156/47 96/147/47 97/148/47
f 87/156/48 88/157/48 95/146/48 96/147/48
f 88/157/49 89/158/49 94/145/49 95/146/49
f 89/158/50 90/159/50 93/144/50 94/145/50
f 90/159/51 82/160/51 91/143/51 93/144/51
f 101/161/52 111/169/52 91/143/52 82/160/52
f 110/133/53 112/135/53 109/168/53 102/131/53
f 112/135/54 113/136/54 108/167/54 109/168/54
f 113/136/55 114/137/55 107/166/55 108/167/55
f 114/137/56 115/138/56 106/165/56 107/166/56
f 115/138/57 116/139/57 105/164/57 106/165/57
f 116/139/58 117/140/58 104/163/58 105/164/58
f 117/140/59 118/141/59 103/162/59 104/163/59
f 118/141/60 111/169/60 101/161/60 103/162/60
f 80/133/41 110/133/41 102/131/41 78/131/41
f 128/112/61 130/171/61 127/170/61 120/111/61
f 130/171/62 131/173/62 126/172/62 127/170/62
f 131/173/63 132/175/63 125/174/63 126/172/63
f 132/175/64 133/177/64 124/176/64 125/174/64
f 133/178/65 134/181/65 123/180/65 124/179/65
f 134/181/66 135/183/66 122/182/66 123/180/66
f 135/183/67 136/185/67 121/184/67 122/182/67
f 136/185/68 129/186/68 119/122/68 121/184/68
f 80/133/42 146/203/42 152/202/42 151/201/42 150/200/42 149/199/42 148/198/42 147/197/42 145/196/42 129/195/42 136/194/42 135/193/42 134/192/42 133/191/42 132/190/42 131/189/42 130/188/42 128/187/42 79/113/42
f 137/132/69 139/205/69 152/204/69 146/134/69
f 139/205/70 140/207/70 151/206/70 152/204/70
f 140/207/71 141/209/71 150/208/71 151/206/71
f 141/209/72 142/211/72 149/210/72 150/208/72
f 142/212/73 143/215/73 148/214/73 149/213/73
f 143/215/74 144/217/74 147/216/74 148/214/74
f 144/217/75 138/121/75 145/218/75 147/216/75
f 145/218/76 138/121/76 119/122/76 129/186/76
