# Blender 4.0.1
# www.blender.org
mtllib tun.mtl
o Cylinder
v -0.492521 2.001998 -0.380511
v -0.489216 2.078297 -0.372989
v -0.486038 2.151664 -0.350713
v -0.483109 2.219280 -0.314537
v -0.480542 2.278545 -0.265854
v -0.478436 2.327183 -0.206533
v -0.476870 2.363325 -0.138854
v -0.475906 2.385581 -0.065418
v -0.475580 2.393095 0.010953
v -0.475906 2.385581 0.087324
v -0.476870 2.363325 0.160760
v -0.478436 2.327183 0.228439
v -0.480542 2.278545 0.287761
v -0.483109 2.219280 0.336444
v -0.486038 2.151664 0.372619
v -0.489216 2.078297 0.394896
v -0.492521 2.001998 0.402418
v -0.495826 1.925698 0.394896
v -0.499004 1.852331 0.372619
v -0.501933 1.784715 0.336444
v -0.504501 1.725450 0.287761
v -0.506607 1.676812 0.228439
v -0.508173 1.640671 0.160760
v -0.509137 1.618415 0.087324
v -0.509462 1.610900 0.010953
v -0.509137 1.618415 -0.065418
v -0.508173 1.640671 -0.138854
v -0.506607 1.676812 -0.206533
v -0.504501 1.725450 -0.265854
v -0.501933 1.784715 -0.314537
v -0.499004 1.852331 -0.350713
v -0.495826 1.925698 -0.372989
v -4.227782 2.163796 -0.286427
v -3.781079 2.144447 -0.380511
v -4.225271 2.221758 -0.280713
v -3.777774 2.220746 -0.372989
v -4.222857 2.277492 -0.263790
v -3.774596 2.294113 -0.350713
v -4.220633 2.328857 -0.236309
v -3.771667 2.361729 -0.314537
v -4.218682 2.373879 -0.199326
v -3.769100 2.420995 -0.265854
v -4.217082 2.410827 -0.154262
v -3.766993 2.469632 -0.206533
v -4.215892 2.438282 -0.102849
v -3.765428 2.505774 -0.138854
v -4.215160 2.455189 -0.047063
v -3.764463 2.528029 -0.065418
v -4.214912 2.460898 0.010953
v -3.764138 2.535544 0.010953
v -4.215160 2.455189 0.068969
v -3.764463 2.528029 0.087324
v -4.215892 2.438282 0.124756
v -3.765428 2.505774 0.160760
v -4.217082 2.410827 0.176169
v -3.766993 2.469632 0.228439
v -4.218682 2.373879 0.221233
v -3.769100 2.420995 0.287761
v -4.220633 2.328857 0.258216
v -3.771667 2.361729 0.336444
v -4.222857 2.277492 0.285697
v -3.774596 2.294113 0.372619
v -4.225271 2.221758 0.302620
v -3.777774 2.220746 0.394896
v -4.227782 2.163796 0.308334
v -3.781079 2.144447 0.402418
v -4.230293 2.105835 0.302620
v -3.784384 2.068147 0.394896
v -4.232707 2.050100 0.285697
v -3.787562 1.994780 0.372619
v -4.234932 1.998735 0.258216
v -3.790491 1.927164 0.336444
v -4.236882 1.953714 0.221233
v -3.793058 1.867899 0.287761
v -4.238482 1.916765 0.176169
v -3.795165 1.819261 0.228439
v -4.239672 1.889310 0.124756
v -3.796731 1.783119 0.160760
v -4.240404 1.872403 0.068969
v -3.797695 1.760864 0.087324
v -4.240652 1.866695 0.010953
v -3.798020 1.753349 0.010953
v -4.240404 1.872403 -0.047063
v -3.797695 1.760864 -0.065418
v -4.239672 1.889310 -0.102849
v -3.796731 1.783119 -0.138854
v -4.238482 1.916765 -0.154262
v -3.795165 1.819261 -0.206533
v -4.236882 1.953714 -0.199326
v -3.793058 1.867899 -0.265854
v -4.234932 1.998735 -0.236309
v -3.790491 1.927164 -0.314537
v -4.232707 2.050100 -0.263790
v -3.787562 1.994780 -0.350713
v -4.230293 2.105835 -0.280713
v -3.784384 2.068147 -0.372989
vn -0.0042 -0.0979 -0.9952
vn 0.0204 0.4710 -0.8819
vn 0.0275 0.6338 -0.7730
vn 0.0335 0.7723 -0.6344
vn 0.0382 0.8811 -0.4714
vn 0.0414 0.9560 -0.2903
vn 0.0431 0.9943 -0.0980
vn 0.0431 0.9943 0.0980
vn 0.0414 0.9560 0.2903
vn 0.0382 0.8811 0.4714
vn 0.0335 0.7723 0.6344
vn 0.0275 0.6338 0.7730
vn 0.0204 0.4710 0.8819
vn 0.0126 0.2900 0.9569
vn 0.0042 0.0979 0.9952
vn -0.0042 -0.0979 0.9952
vn -0.0126 -0.2900 0.9569
vn -0.0204 -0.4710 0.8819
vn -0.0275 -0.6338 0.7730
vn -0.0335 -0.7723 0.6344
vn -0.0382 -0.8811 0.4714
vn -0.0414 -0.9560 0.2903
vn -0.0431 -0.9943 0.0980
vn -0.0431 -0.9943 -0.0980
vn -0.0414 -0.9560 -0.2903
vn -0.0382 -0.8811 -0.4714
vn -0.0335 -0.7723 -0.6344
vn -0.0275 -0.6338 -0.7730
vn -0.0204 -0.4710 -0.8819
vn -0.0126 -0.2900 -0.9569
vn 0.9991 -0.0433 -0.0000
vn 0.0126 0.2900 -0.9569
vn 0.0042 0.0979 -0.9952
vn -0.2006 0.1047 -0.9741
vn -0.1925 0.2927 -0.9366
vn -0.1848 0.4698 -0.8632
vn -0.1779 0.6292 -0.7566
vn -0.1720 0.7648 -0.6209
vn -0.1674 0.8713 -0.4614
vn -0.1642 0.9446 -0.2841
vn -0.1626 0.9820 -0.0959
vn -0.1626 0.9820 0.0959
vn -0.1642 0.9446 0.2841
vn -0.1674 0.8713 0.4614
vn -0.1720 0.7648 0.6209
vn -0.1779 0.6292 0.7566
vn -0.1848 0.4698 0.8632
vn -0.1925 0.2927 0.9366
vn -0.2006 0.1047 0.9741
vn -0.2089 -0.0870 0.9741
vn -0.2171 -0.2750 0.9366
vn -0.2247 -0.4521 0.8632
vn -0.2316 -0.6115 0.7566
vn -0.2375 -0.7470 0.6209
vn -0.2421 -0.8535 0.4614
vn -0.2453 -0.9269 0.2841
vn -0.2469 -0.9643 0.0959
vn -0.2469 -0.9643 -0.0959
vn -0.2453 -0.9269 -0.2841
vn -0.2421 -0.8535 -0.4614
vn -0.2375 -0.7470 -0.6209
vn -0.2316 -0.6115 -0.7566
vn -0.2247 -0.4521 -0.8632
vn -0.2171 -0.2750 -0.9366
vn -0.2089 -0.0870 -0.9741
vn -0.9991 0.0433 -0.0000
vt 0.031250 0.559795
vt 0.031250 1.000000
vt 0.000000 1.000000
vt 0.000000 0.559795
vt 0.937500 0.559795
vt 0.937500 1.000000
vt 0.906250 1.000000
vt 0.906250 0.559795
vt 0.875000 1.000000
vt 0.875000 0.559795
vt 0.843750 1.000000
vt 0.843750 0.559795
vt 0.812500 1.000000
vt 0.812500 0.559795
vt 0.781250 1.000000
vt 0.781250 0.559795
vt 0.750000 1.000000
vt 0.750000 0.559795
vt 0.718750 1.000000
vt 0.718750 0.559795
vt 0.687500 1.000000
vt 0.687500 0.559795
vt 0.656250 1.000000
vt 0.656250 0.559795
vt 0.625000 1.000000
vt 0.625000 0.559795
vt 0.593750 1.000000
vt 0.593750 0.559795
vt 0.562500 1.000000
vt 0.562500 0.559795
vt 0.531250 1.000000
vt 0.531250 0.559795
vt 0.500000 1.000000
vt 0.500000 0.559795
vt 0.468750 1.000000
vt 0.468750 0.559795
vt 0.437500 1.000000
vt 0.437500 0.559795
vt 0.406250 1.000000
vt 0.406250 0.559795
vt 0.406250 0.559795
vt 0.375000 1.000000
vt 0.375000 0.559795
vt 0.375000 0.559795
vt 0.343750 1.000000
vt 0.343750 0.559795
vt 0.312500 1.000000
vt 0.312500 0.559795
vt 0.281250 1.000000
vt 0.281250 0.559795
vt 0.250000 1.000000
vt 0.250000 0.559795
vt 0.218750 1.000000
vt 0.218750 0.559795
vt 0.187500 1.000000
vt 0.187500 0.559795
vt 0.156250 1.000000
vt 0.156250 0.559795
vt 0.125000 1.000000
vt 0.125000 0.559795
vt 0.093750 1.000000
vt 0.093750 0.559795
vt 0.062500 1.000000
vt 0.062500 0.559795
vt 0.296822 0.485388
vt 0.250000 0.490000
vt 0.203178 0.485388
vt 0.158156 0.471731
vt 0.116663 0.449553
vt 0.080294 0.419706
vt 0.050447 0.383337
vt 0.028269 0.341844
vt 0.014612 0.296822
vt 0.010000 0.250000
vt 0.014612 0.203178
vt 0.028269 0.158156
vt 0.050447 0.116663
vt 0.080294 0.080294
vt 0.116663 0.050447
vt 0.158156 0.028269
vt 0.203178 0.014612
vt 0.250000 0.010000
vt 0.296822 0.014612
vt 0.341844 0.028269
vt 0.383337 0.050447
vt 0.419706 0.080294
vt 0.449553 0.116663
vt 0.471731 0.158156
vt 0.485388 0.203178
vt 0.490000 0.250000
vt 0.485388 0.296822
vt 0.471731 0.341844
vt 0.449553 0.383337
vt 0.419706 0.419706
vt 0.383337 0.449553
vt 0.341844 0.471731
vt 0.968750 0.559795
vt 0.968750 1.000000
vt 1.000000 0.559795
vt 1.000000 1.000000
vt 0.750000 0.490000
vt 0.796822 0.485388
vt 0.785568 0.428815
vt 0.750000 0.432319
vt 0.841844 0.471731
vt 0.819770 0.418440
vt 0.883337 0.449553
vt 0.851291 0.401592
vt 0.919706 0.419706
vt 0.878919 0.378919
vt 0.949553 0.383337
vt 0.901592 0.351291
vt 0.971731 0.341844
vt 0.918441 0.319770
vt 0.985388 0.296822
vt 0.928816 0.285569
vt 0.990000 0.250000
vt 0.932319 0.250000
vt 0.985388 0.203178
vt 0.928815 0.214431
vt 0.971731 0.158156
vt 0.918441 0.180230
vt 0.949553 0.116663
vt 0.901592 0.148709
vt 0.919706 0.080294
vt 0.878919 0.121081
vt 0.883337 0.050447
vt 0.851291 0.098408
vt 0.841844 0.028269
vt 0.819770 0.081560
vt 0.796822 0.014612
vt 0.785569 0.071185
vt 0.750000 0.010000
vt 0.750000 0.067681
vt 0.703178 0.014612
vt 0.714431 0.071185
vt 0.658156 0.028269
vt 0.680230 0.081560
vt 0.616663 0.050447
vt 0.648709 0.098408
vt 0.580294 0.080294
vt 0.621081 0.121081
vt 0.550447 0.116663
vt 0.598408 0.148709
vt 0.528269 0.158156
vt 0.581559 0.180230
vt 0.514612 0.203178
vt 0.571185 0.214431
vt 0.510000 0.250000
vt 0.567681 0.250000
vt 0.514612 0.296822
vt 0.571185 0.285569
vt 0.528269 0.341844
vt 0.581560 0.319770
vt 0.550447 0.383337
vt 0.598408 0.351291
vt 0.580294 0.419706
vt 0.621081 0.378919
vt 0.616663 0.449553
vt 0.648709 0.401592
vt 0.658156 0.471731
vt 0.680230 0.418440
vt 0.703178 0.485388
vt 0.714431 0.428815
s 0
f 96/1/1 34/4/1 1/3/1 32/2/1
f 38/5/2 40/8/2 4/7/2 3/6/2
f 40/8/3 42/10/3 5/9/3 4/7/3
f 42/10/4 44/12/4 6/11/4 5/9/4
f 44/12/5 46/14/5 7/13/5 6/11/5
f 46/14/6 48/16/6 8/15/6 7/13/6
f 48/16/7 50/18/7 9/17/7 8/15/7
f 50/18/8 52/20/8 10/19/8 9/17/8
f 52/20/9 54/22/9 11/21/9 10/19/9
f 54/22/10 56/24/10 12/23/10 11/21/10
f 56/24/11 58/26/11 13/25/11 12/23/11
f 58/26/12 60/28/12 14/27/12 13/25/12
f 60/28/13 62/30/13 15/29/13 14/27/13
f 62/30/14 64/32/14 16/31/14 15/29/14
f 64/32/15 66/34/15 17/33/15 16/31/15
f 66/34/16 68/36/16 18/35/16 17/33/16
f 68/36/17 70/38/17 19/37/17 18/35/17
f 70/38/18 72/40/18 20/39/18 19/37/18
f 72/41/19 74/43/19 21/42/19 20/39/19
f 74/44/20 76/46/20 22/45/20 21/42/20
f 76/46/21 78/48/21 23/47/21 22/45/21
f 78/48/22 80/50/22 24/49/22 23/47/22
f 80/50/23 82/52/23 25/51/23 24/49/23
f 82/52/24 84/54/24 26/53/24 25/51/24
f 84/54/25 86/56/25 27/55/25 26/53/25
f 86/56/26 88/58/26 28/57/26 27/55/26
f 88/58/27 90/60/27 29/59/27 28/57/27
f 90/60/28 92/62/28 30/61/28 29/59/28
f 92/62/29 94/64/29 31/63/29 30/61/29
f 94/64/30 96/1/30 32/2/30 31/63/30
f 2/65/31 3/96/31 4/95/31 5/94/31 6/93/31 7/92/31 8/91/31 9/90/31 10/89/31 11/88/31 12/87/31 13/86/31 14/85/31 15/84/31 16/83/31 17/82/31 18/81/31 19/80/31 20/79/31 21/78/31 22/77/31 23/76/31 24/75/31 25/74/31 26/73/31 27/72/31 28/71/31 29/70/31 30/69/31 31/68/31 32/67/31 1/66/31
f 36/97/32 38/5/32 3/6/32 2/98/32
f 34/99/33 36/97/33 2/98/33 1/100/33
f 34/101/34 33/104/34 35/103/34 36/102/34
f 36/102/35 35/103/35 37/106/35 38/105/35
f 38/105/36 37/106/36 39/108/36 40/107/36
f 40/107/37 39/108/37 41/110/37 42/109/37
f 42/109/38 41/110/38 43/112/38 44/111/38
f 44/111/39 43/112/39 45/114/39 46/113/39
f 46/113/40 45/114/40 47/116/40 48/115/40
f 48/115/41 47/116/41 49/118/41 50/117/41
f 50/117/42 49/118/42 51/120/42 52/119/42
f 52/119/43 51/120/43 53/122/43 54/121/43
f 54/121/44 53/122/44 55/124/44 56/123/44
f 56/123/45 55/124/45 57/126/45 58/125/45
f 58/125/46 57/126/46 59/128/46 60/127/46
f 60/127/47 59/128/47 61/130/47 62/129/47
f 62/129/48 61/130/48 63/132/48 64/131/48
f 64/131/49 63/132/49 65/134/49 66/133/49
f 66/133/50 65/134/50 67/136/50 68/135/50
f 68/135/51 67/136/51 69/138/51 70/137/51
f 70/137/52 69/138/52 71/140/52 72/139/52
f 72/139/53 71/140/53 73/142/53 74/141/53
f 74/141/54 73/142/54 75/144/54 76/143/54
f 76/143/55 75/144/55 77/146/55 78/145/55
f 78/145/56 77/146/56 79/148/56 80/147/56
f 80/147/57 79/148/57 81/150/57 82/149/57
f 82/149/58 81/150/58 83/152/58 84/151/58
f 84/151/59 83/152/59 85/154/59 86/153/59
f 86/153/60 85/154/60 87/156/60 88/155/60
f 88/155/61 87/156/61 89/158/61 90/157/61
f 90/157/62 89/158/62 91/160/62 92/159/62
f 92/159/63 91/160/63 93/162/63 94/161/63
f 94/161/64 93/162/64 95/164/64 96/163/64
f 96/163/65 95/164/65 33/104/65 34/101/65
f 33/104/66 95/164/66 93/162/66 91/160/66 89/158/66 87/156/66 85/154/66 83/152/66 81/150/66 79/148/66 77/146/66 75/144/66 73/142/66 71/140/66 69/138/66 67/136/66 65/134/66 63/132/66 61/130/66 59/128/66 57/126/66 55/124/66 53/122/66 51/120/66 49/118/66 47/116/66 45/114/66 43/112/66 41/110/66 39/108/66 37/106/66 35/103/66
